<?xml version="1.0" encoding="UTF-8"?><svg id="Layer_2" xmlns="http://www.w3.org/2000/svg" xmlns:xlink="http://www.w3.org/1999/xlink" viewBox="0 0 1173.09 620.45"><defs><style>.cls-1{fill:none;}.cls-2{fill:#c49a6c;}.cls-3{fill:#fee3cc;}.cls-4{fill:url(#linear-gradient-7);}.cls-5{fill:url(#linear-gradient-5);}.cls-6{fill:url(#linear-gradient-6);}.cls-7{fill:url(#linear-gradient-4);}.cls-8{fill:url(#linear-gradient-3);}.cls-9{fill:url(#linear-gradient-2);}.cls-10{fill:url(#linear-gradient);}.cls-11{fill:#b4906c;}.cls-12{fill:#f15523;}.cls-13{fill:#f7941d;}.cls-14{fill:#ef4136;}</style><linearGradient id="linear-gradient" x1="57.98" y1="209.91" x2="57.98" y2="269.64" gradientUnits="userSpaceOnUse"><stop offset="0" stop-color="#6d472c"/><stop offset="1" stop-color="#472a18"/></linearGradient><linearGradient id="linear-gradient-2" x1="487.13" y1="206.82" x2="487.13" y2="266.48" xlink:href="#linear-gradient"/><linearGradient id="linear-gradient-3" x1="272.55" y1="262.36" x2="272.55" y2="596.66" gradientUnits="userSpaceOnUse"><stop offset="0" stop-color="#a57453"/><stop offset="1" stop-color="#774c2c"/></linearGradient><linearGradient id="linear-gradient-4" x1="423.39" y1="22.23" x2="124.08" y2="429.55" gradientUnits="userSpaceOnUse"><stop offset="0" stop-color="#ef4136"/><stop offset="1" stop-color="#f7941d"/></linearGradient><linearGradient id="linear-gradient-5" x1="532.83" y1="68.96" x2="204.2" y2="450.81" gradientUnits="userSpaceOnUse"><stop offset="0" stop-color="#be2026"/><stop offset=".99" stop-color="#f15523"/></linearGradient><linearGradient id="linear-gradient-6" x1="470.65" y1="221.22" x2="470.65" y2="265.96" gradientUnits="userSpaceOnUse"><stop offset=".48" stop-color="#ddac83"/><stop offset=".99" stop-color="#b78c62"/></linearGradient><linearGradient id="linear-gradient-7" x1="74.46" y1="221.22" x2="74.46" y2="265.96" xlink:href="#linear-gradient-6"/></defs><g id="Layer_1-2"><path class="cls-3" d="M542.3,554.1c-8.41-26.18-14.73-54.97-19.31-88.03-1.58-11.29-2.59-21.18-3.1-30.27-.46-7.93-.8-17.25.17-26.12.98-8.75,3.72-17.27,6.61-26.29l.67-2.1c4.9-15.46,8.43-29.74,10.8-43.65,5.59-32.88,6.05-65.83,6.05-99.5v-.25c-.09-2.94-.62-5.8-1.55-8.46-7.2-20.8-38.11-27.16-55.24-27.64-.81-.02-1.63-.03-2.45-.03-1.43,0-2.93.04-4.5.12,2.64-1.84,4.96-4.14,6.82-6.77,2.11-2.97,2.07-4.33,4.75-7.68,1.14-1.42,2.7-3.35,5.35-5.13,2.37-1.6,4.52-2.34,5.68-2.74,2.22-.75,4.18-1.09,5.66-1.24-2.84-1.44-5.28-2.53-7.11-3.3-2.57-1.08-5.6-2.35-9.71-3.48-2.97-.82-4.79-1.1-5.38-1.19-1.82-.26-3.72-.39-5.66-.39-2.37,0-6.91.23-11.51,1.66,41.4-55.98,29.92-122.91,25.26-142.61l-.89-3.78-5.98-25.23-9.04,27.28-.78,2.34c-7.87,23.75-19.37,39.83-34.17,47.8-6.86,3.7-15.95,7.82-35.79,12.89l-.17.04c-13.31,3.4-27.08,6.92-39.56,14.15-4.16,2.4-7.95,5.15-11.32,8.16.23-.21.36-1.03.47-1.34.19-.52.39-1.05.6-1.56.4-1,.83-1.98,1.3-2.95.92-1.94,1.96-3.82,3.12-5.63,3.06-4.81,7.64-9.31,8.18-9.83,7.23-7.05,14.95-12.61,20.59-16.35,3.83-2.54,9.05-5.8,15.5-9.24-2.5,0-5.77.07-9.59.42-4.42.4-7.66.98-10.8,1.54-4.16.75-8.83,1.61-14.74,3.43-3.67,1.13-6.31,2.16-9.02,3.23-3.57,1.41-8.7,3.71-15.55,7.06-6.25,3.05-12.34,6.45-18.09,10.36-11.36,7.72-26.25,21-32.71,40.42-.64,1.92-1.17,3.73-1.59,5.49-.15-.44-.31-.91-.49-1.42-.85-2.39-1.81-5.09-1.89-8.91-.03-1.23.05-2.48.23-3.71l2.71-18.66-15.3,11.01c-1.92,1.39-3.76,2.93-5.45,4.59-7.17,7.05-14.85,19.54-14.95,30.47-.25,3.92.39,7.76,1.06,11.81.33,1.99.68,3.56.98,4.94.57,2.59.86,3.89.72,6.25-.07,1.18-.24,2.36-.5,3.51-.52-.68-1.08-1.42-1.68-2.24-4-5.41-8.97-12.14-18.91-15.81-4.09-1.51-8.49-2.27-13.08-2.27-4.31,0-8.85.68-13.5,2.02l-17.48,5.07,15.55,9.45c6.21,3.78,11.1,8.61,14.54,14.35,2.69,4.49,4.24,9.18,4.99,13.83l.42,3.5c.57,7.22-.61,14.16-2.25,19.93-.34-5.26-2.01-10.64-4.18-14.82-.03-.05-.06-.11-.09-.16,0,0-2.96-4.72-2.97-4.72l-10.1-13.98-3.89,17.32c-.12.54-.3,1.07-.52,1.58-.23.53-.49.98-.77,1.4l-21.38,8.82c-14.53,6-26.58,16.46-33.96,29.48-.76,1.35-1.47,2.72-2.12,4.11l-4.29.55c-3.17.41-6.31.76-9.32,1.04-8.63.82-17.54,1.46-26.59,1.91,1.13-5.34,2.09-10.11,2.87-14.26l.03-.18.04-.29.04-.16.02-.17c.09-.51.18-1.03.26-1.54.55-3.39.99-6.26,1.33-8.4l.17-1.1.04-.28c.17-1.46.16-2.87-.05-4.35-2.66-18.53-34.98-25.43-54.72-25.43-.82,0-1.63.01-2.45.03-17.13.48-48.03,6.84-55.22,27.61-.94,2.69-1.47,5.54-1.56,8.48l-.02.4v.14c.02,33.57.49,66.43,6.07,99.22,2.36,13.91,5.89,28.19,10.8,43.67l.67,2.07c2.89,9.03,5.62,17.55,6.6,26.28.98,8.89.64,18.21.18,26.15-.52,9.05-1.53,18.95-3.1,30.27-4.58,33.07-10.9,61.86-19.32,88.02-3.08,9.58-3.6,17.66-1.65,25.43,4.32,17.15,19.94,26.13,25.83,29.51,13.16,7.57,29.07,11.41,47.26,11.41,13.99,0,25.15-2.32,28.81-3.09l.21-.04c66.55-13.82,139.84-17.48,169.29-17.48s102.75,3.66,169.3,17.48l.2.04c3.67.77,14.83,3.09,28.82,3.09,18.19,0,34.09-3.84,47.26-11.41,5.88-3.38,21.49-12.35,25.82-29.51,1.96-7.79,1.44-15.87-1.65-25.43ZM200.5,262.26c-.91.14-2.39.32-4.24.32-2.17,0-9.45-.31-11.98-4.27-2.82-4.43-.88-15.42,10.02-23.72l3.89-2.96c-.05,1.43.03,2.9.27,4.4.93,5.81,4.11,10.69,5.81,13.32.89,1.37,1.88,2.72,2.92,4.01l3.57,4.4c-2.96,2.22-6.37,3.88-10.26,4.5ZM400.6,254.45c-2.58,1.61-6.07,2.61-9.09,2.61-2.48,0-4.46-.63-5.88-1.86-3.96-3.43-2.7-11.29-2.22-13.62,2.63-12.69,17.86-18.32,18.51-18.55l.28-.11c.95-.39,1.9-.78,2.84-1.18l2.51,10.19c2.29,9.29-.57,18.55-6.95,22.52ZM457.93,205.38h-.01c-13.83,3.77-26.09,10.71-27.69,21.85-.2,1.44-.22,2.85-.04,4.31l.02.14.19,1.27c.33,2.14.78,5,1.32,8.32.09.56.18,1.09.26,1.6l.02.08.03.15.06.4.03.16c.77,4.14,1.73,8.91,2.87,14.26-2.52-.13-4.94-.25-7.29-.4.98-10.44-.63-21.14-5.11-30.85l-5.03-10.9c8.55-4.53,16.62-9.78,24.07-15.67l8.9,3.2c1.64.59,3.31,1.1,4.98,1.51.68.17,1.51.37,2.42.57,0,0,0,0,0,0Z"/></g><g id="Isolation_Mode"><path class="cls-3" d="M657.7,265.37l4.82-3.1,1.72-1.38c2.75-2.06,5.85-2.75,9.29-3.1h1.03c3.44-.34,6.54,0,9.63,1.72l1.72.69,6.19,2.41,6.53,3.1,17.88,7.91,6.54,3.1,6.19,2.41,6.19,3.44,6.53,2.75,1.38.69c3.44,1.38,5.5,3.1,7.57,6.19l.69,1.03c2.06,3.1,2.75,5.85,2.75,9.29v16.17l.34,6.19v20.98l-.34,6.88-.34,3.78c0,2.75,0,4.13.34,5.85.34,3.1.34,5.85,0,8.94l-.34,2.06v7.22l.34,6.19.34,6.88-.34,7.22v6.53l.34,6.88-.34,6.88.34,7.57-.69,6.53v2.06c0,3.44-.69,6.19-2.41,9.63l-1.03,1.72c-1.72,3.1-3.44,4.81-6.19,6.88l-7.22,5.5-2.06,1.38c-2.75,1.72-5.16,3.44-7.91,4.81-1.72.69-3.1,1.38-5.16,3.1l-3.09,2.41-11.01,7.57-6.19,4.47-5.85,3.78-5.5,4.13-2.06,1.03c-3.1,2.06-5.5,2.75-8.94,3.1h-2.41c-3.78.34-6.19-.34-9.29-1.72l-2.06-.69-12.04-4.81-5.85-3.1-6.19-2.41-6.19-3.1-6.19-2.75-5.85-3.1-11.69-5.85-1.72-.69c-3.44-1.38-5.5-2.75-7.57-6.19l-.34-.69c-2.06-3.1-2.75-5.85-2.75-9.29v-1.72l.34-7.57v-13.76l-.34-6.88v-3.1c0-2.75.34-3.78,0-5.16-.34-3.1-.34-5.85,0-8.94.34-2.06.34-3.1,0-5.85l-.34-3.78.34-6.88-.34-7.22.34-3.44c.34-2.75.34-4.13,0-6.88l-.34-3.1v-6.88l.34-6.54-.34-6.88v-6.53l.34-7.57-.34-6.88v-8.6c0-3.44,1.03-5.85,2.41-9.29l.69-1.72c1.38-3.1,3.44-5.16,6.19-7.22l1.38-1.03,3.1-1.72c2.06-1.38,3.44-2.41,5.16-4.13l2.41-2.06,10.32-7.22,5.16-3.1,7.91-5.5,7.91-5.85,6.19-4.13ZM657.35,444.56l2.41.69,7.22,2.75,6.88,2.06,6.54,2.75,6.53,2.06,6.88,2.41,2.75,1.03c3.1,1.03,5.16.34,7.57-1.38,1.72-1.38,2.75-3.44,2.75-6.19v-2.75l.34-7.22v-6.19l-.34-7.22-.34-6.19v-14.1l.34-2.41c.34-2.41.34-4.47.34-6.88l-.34-4.13v-13.41l-.34-6.53.34-6.88.34-6.54v-6.19l-.34-7.22-.34-6.19.69-7.57-.34-5.85v-3.1c0-3.1-.34-4.47-2.06-6.88l-2.75-3.44c-1.72-2.06-3.09-2.75-5.85-3.78l-2.75-1.03-6.88-1.72-2.41-.69c-3.1-1.03-5.85-2.06-8.6-3.44l-2.41-1.03-6.54-2.06-2.75-.69c-3.1-.69-5.5-1.03-8.6-2.41-1.38-.69-3.44-.34-5.85,2.06-1.72,1.72-2.41,3.78-2.41,6.53v2.75l-.34,6.88-.34,7.22.34,6.53-.34,7.57v13.76l.69,6.53v7.22l-.34,6.88-.34,7.22.34,6.53.34,7.22-.69,6.88v7.57l.34,6.53-.34,3.78c0,2.75,0,4.13.34,5.85.34,3.1.34,5.85,0,8.94-.34,2.41.34,3.78,2.06,6.19l2.41,2.75c1.72,2.06,3.78,3.44,6.19,4.13Z"/><path class="cls-3" d="M783.57,303.55l-3.44-1.72-2.06-.69c-3.44-1.03-5.85-3.1-7.22-5.85-1.38-3.1-1.38-5.85.34-9.29l.69-1.38,3.44-6.53,2.75-6.19,1.03-3.1c1.03-3.1,2.06-4.82,3.44-7.22,1.03-1.72,3.44-3.44,6.54-4.81,3.09-1.38,6.19-.34,9.29,1.72.34.34,1.72.69,3.78,1.72l2.41,1.03,6.54,3.78,6.19,3.44,5.5,2.75,5.85,3.44,2.41,1.03c2.41,1.38,4.81,1.38,7.22,1.03l2.41-.34c2.75-.34,4.47-1.38,6.19-3.44l2.41-2.75,3.78-4.81,3.78-5.16,1.38-1.72c2.41-3.1,4.82-4.47,8.25-5.5l1.03-.34c3.44-1.03,6.19-1.03,9.63,0l1.72.34,7.57,1.38,13.76,3.78,7.22,1.72,6.88,1.72,2.06.69c3.44.69,6.19,2.06,8.6,4.81,2.41,3.1,3.44,5.85,3.78,9.29v4.13c0,3.1.34,5.85,0,8.94-.34,1.03-.34,2.41,0,4.13.34,3.1.34,5.85,0,8.94-.34,2.06,0,3.1,0,5.85v6.19c0,2.75-.34,4.13,0,5.85.34,3.1.34,5.16.34,7.57-.34,2.75-.69,4.47-2.41,7.57l-.69,1.38c-1.72,3.1-3.78,5.16-6.88,6.88l-1.03.34-11.35,6.88-1.72,1.38c-2.41,1.72-3.44,4.13-3.1,6.88,0,.69,1.38,2.06,4.13,3.44l1.72.69,6.54,2.41,5.85,3.1,2.75,1.38c2.06,1.03,3.09,1.38,3.44,1.38,3.44,1.03,6.19,3.44,7.91,6.53l.69,1.03c1.72,3.1,2.41,5.16,2.75,8.94.34,2.06,0,3.44,0,6.88v2.41l.34,7.22-.34,6.88.34,7.91-.34,3.44c-.34,2.75-.34,4.13,0,6.88v.69c.34,2.75.69,4.47,1.72,6.53l2.06,4.13c1.03,2.41,1.72,3.78,2.75,4.47,3.1,2.06,4.47,4.47,5.16,7.57.69,3.1-.34,6.19-2.75,9.29l-3.44,3.44c-1.72,1.72-2.75,3.1-4.13,5.16l-2.41,3.44-4.13,5.16-2.75,2.41c-1.72,1.72-3.09,3.44-4.47,5.16l-2.41,3.44-.34.69c-2.41,3.44-4.81,4.81-7.91,4.47-3.44-.34-6.19-1.38-8.6-4.13l-6.19-6.88-4.13-5.16-4.47-5.5-9.97-10.66-1.03-1.03c-2.41-3.1-3.44-5.5-3.09-8.94.34-3.1,1.72-5.85,4.81-8.25h.34l2.06-1.03c2.06-1.38,3.78-3.1,4.81-5.5l2.06-4.13c1.03-2.06,1.72-4.13,1.72-6.53l.34-3.78.34-6.53v-3.44c0-2.41-.69-4.81-2.06-6.88l-2.41-3.1c-1.38-2.06-3.09-3.44-5.5-4.47l-3.44-1.38-6.19-2.06-6.54-2.75-7.22-2.06-5.85-2.41-2.75-1.03c-2.75-1.03-4.82-.34-7.22,1.03-2.41,1.38-3.44,3.78-3.44,6.53v16.17l.34,7.22-.34,6.54v3.44c0,2.75.69,4.47,1.72,6.53l2.41,5.16c1.03,2.41,2.06,3.78,3.44,4.47,3.1,2.06,5.16,4.47,5.85,7.57.34,3.44-.34,5.85-2.75,8.94l-1.72,2.06-4.47,5.16-8.25,10.32-4.47,5.85-5.85,6.88c-2.41,3.1-5.16,4.13-7.91,4.13-2.75.34-5.5-1.03-8.25-3.78l-.69-.69-8.94-10.32-9.63-9.29-4.82-4.47-4.47-5.16-.34-.34c-2.41-3.1-3.44-6.19-2.75-9.29.34-3.1,2.06-5.5,5.5-7.57,1.03-.69,2.41-1.72,3.78-4.13l2.75-4.47c1.38-2.41,2.06-4.13,2.41-6.54l.34-4.13v-6.88l-.34-2.06c-.34-3.1-.34-5.85,0-8.94l.34-2.41v-7.22l-.34-7.22v-3.1c0-2.41.34-4.47,0-6.88l-.34-3.44v-7.57l.69-7.22v-14.1l-.34-2.06c-.34-3.1,0-5.5,0-8.94v-5.16c0-3.1-.34-5.85,0-8.94.34-1.72.34-2.75.34-5.5-.34-2.75-1.03-4.47-2.41-6.53l-2.75-3.44c-1.38-2.06-3.1-3.78-5.16-4.82ZM850.01,363.47c.16-.08.32-.17.47-.25,2.32-1.31,4.23-3.22,6.3-4.9,3.19-2.58,6.82-4.62,10.67-6.04,1.98-.73,3.94-1.54,6.02-1.98.78-.17,1.59-.31,2.39-.32s1.31.2,2,.5c1.06.47,2.65-.98,3.39-1.64,1.88-1.66,2.84-3.96,3.08-6.43l.34-3.44v-7.22l-.34-2.75c-.34-3.1-.34-5.85,0-8.94.34-2.06.34-3.1,0-5.16-.34-3.1-.34-5.85,0-8.94.34-1.72-.34-3.44-2.06-5.5l-2.41-3.1c-1.38-2.06-2.75-3.1-5.16-4.47l-2.41-1.03-12.73-4.13-5.85-2.41-2.06-1.03c-2.75-1.03-5.16-.69-7.57,1.03-2.41,1.72-3.44,3.78-3.44,6.53v9.97l.69,7.22-.34,6.19.34,7.57-.34,6.88v3.1c0,2.41-.34,4.47,0,6.88l.34,3.44-.34,6.88.34,7.22v1.72c0,2.03.13,4.6,2.2,5.47,1.96.82,4.59.04,6.46-.92Z"/><path class="cls-3" d="M978.23,303.55l-3.1-1.38-1.72-.69c-3.44-1.38-5.85-3.44-7.22-6.53-1.38-3.1-1.38-5.5.34-9.29l.69-1.03,3.44-7.22,3.09-5.85,1.03-2.75c1.03-3.44,1.72-5.16,3.1-7.22,1.03-2.06,3.09-3.78,6.19-4.81,3.1-1.03,5.85-.69,9.29,1.03l.69.34,6.19,3.44,6.53,3.1,5.85,3.44,13.41,7.57c3.1,1.72,5.16,3.44,6.88,6.88l.69,1.38c1.72,3.1,2.41,5.16,2.75,8.94v1.72l-.34,6.53.34,7.57-.34,6.53.34,7.22v2.75c0,2.75-.34,4.13,0,5.85.34,3.1,0,5.85,0,8.94v2.06l.34,7.57v8.6c0,1.03,0,1.72.34,2.41.69,3.44,4.47,2.41,6.53-.69l1.03-1.72,4.82-5.85,3.44-4.82,4.81-6.19,3.78-5.5,4.47-5.85,3.78-5.5,4.47-6.19,1.72-2.41c1.72-2.06,2.41-4.13,1.72-7.22-.69-3.1-2.41-4.47-5.16-5.5l-3.44-1.03-1.72-.69c-3.44-1.38-5.5-3.44-6.88-6.19-1.72-3.1-1.38-5.85.69-9.29l.69-1.38,3.1-6.88.69-2.41c1.03-3.1,2.41-4.82,4.13-7.91l2.06-4.13c1.72-3.44,3.78-5.16,6.88-6.53,3.09-1.38,6.19-1.38,9.63.34l13.76,6.53,6.88,2.75,6.54,3.44,2.06.69c3.44,1.38,5.5,2.41,8.25,4.13l1.72,1.03,1.72.69c3.78,1.38,5.85,3.44,6.54,5.85.69,2.41,0,4.81-2.41,8.25l-.69,1.03-4.13,5.16-1.03,1.72c-1.72,3.1-3.44,4.81-5.5,7.22l-1.72,2.06-4.13,4.81-3.78,5.5-4.13,5.5-7.57,10.32-8.6,10.66-1.38,1.72c-1.72,2.06-2.06,4.47-1.38,7.57.34,2.41,1.72,4.13,4.47,5.5l2.75,1.03,5.85,3.1,6.53,2.75,6.19,2.06,5.16,2.41,2.06,1.03c3.1,1.72,5.16,3.78,7.22,6.53l.34.69c2.06,3.1,2.75,5.5,2.75,9.29v2.41l.69,6.88v7.91l-.34,3.1c-.34,2.75-.34,4.13,0,6.88l.34,3.44-.34,7.22v4.47c0,2.41.69,4.47,1.72,6.53l2.06,4.13c1.03,2.41,1.72,3.78,2.41,4.13,3.44,2.41,5.16,4.13,5.5,7.91.34,3.44-.69,6.19-3.1,9.29l-1.03,1.03-1.03,1.72c-1.72,2.75-3.78,4.47-6.19,6.88l-1.72,1.72-4.47,5.85-4.13,5.5-3.1,3.1c-1.72,1.72-2.75,3.1-4.47,4.82-1.72,1.72-3.78,2.41-5.85,2.41-3.09.34-6.19-1.03-8.6-4.13l-1.03-1.38-9.63-10.32-4.47-5.16-4.13-5.85-6.53-6.88c-2.75-2.75-3.44-5.85-3.1-8.6.34-3.1,2.06-4.82,5.5-6.88l.69-.34,1.72-1.38c2.41-1.72,3.78-3.1,4.82-5.5l2.06-4.13c1.03-2.06,1.38-3.78,1.38-6.53l.34-3.78-.34-6.88.34-4.13c.34-3.1-.34-4.47-2.06-6.88l-2.41-3.1c-1.72-2.41-2.75-3.1-4.13-3.44-3.09-1.03-5.5-1.72-8.6-3.1-2.06-1.03-3.44-1.72-5.85-2.41l-3.09-.69-6.88-2.41-6.19-2.41-2.41-1.03c-2.75-1.38-5.16-1.03-7.57,1.03-2.41,1.72-3.09,4.13-3.09,6.88v4.47c0,3.44.34,5.85,0,8.94l-.34,2.06v7.91l.34,2.06c.34,3.1,0,5.5,0,8.94,0,1.72.69,3.44,1.72,5.5l2.75,5.16c1.03,2.41,2.06,3.78,3.1,4.13,3.09,2.06,4.81,4.47,5.5,7.91.69,3.1,0,5.85-3.1,8.94l-1.03,1.03-3.78,5.16-4.47,6.19-4.47,5.5-4.81,5.16-4.13,4.82-1.03,1.38c-2.41,3.09-4.82,4.81-7.91,4.81-3.44,0-5.85-1.03-8.6-3.78l-.69-.69-9.63-9.97-1.72-2.41c-1.38-1.72-2.75-3.1-4.47-4.81l-3.1-2.75-4.13-4.13-4.47-5.5-.34-.69c-2.75-2.75-3.78-5.5-3.09-8.94.69-3.44,2.41-5.16,5.85-7.22,1.03-.69,2.41-1.72,3.78-4.13l3.1-4.81c1.38-2.41,1.72-4.47,1.72-6.88v-16.85l.34-7.57v-6.53l-.69-6.88.34-7.22v-6.53l-.34-7.57.69-6.88v-7.22l-.34-6.53v-7.22l.34-6.88v-13.76l-.34-3.1c-.34-2.41-1.03-4.81-2.41-6.88l-2.75-3.44c-1.38-2.06-3.1-3.78-5.5-4.82Z"/><path class="cls-14" d="M627.89,540.62c-.45,3.14-.63,6.56-.63,9.79,0,.99.09,1.98.09,2.87v3.86c0,1.62-.09,3.23-.09,4.94,0,1.62.36,3.14.72,4.67.18.63.27,1.26.36,1.89.09.45,0,.9-.36,1.17-.45.36-.81.63-1.26.9-2.96,1.98-5.75,4.22-8.26,6.65-1.35,1.26-2.69,2.42-4.04,3.68-.18.18-.45.45-.72.63-.54.36-1.17.36-1.8,0-1.44-.99-2.96-1.8-4.31-2.87-1.17-.9-2.33-1.71-3.59-2.33-.54-.36-1.08-.72-1.62-1.08-.63-.54-.9-1.26-.72-2.07.09-.54.27-.99.45-1.44.27-.9.45-1.89.45-2.78,0-4.49.36-21.82-.27-23.98-.09-.45-.27-.81-.36-1.17-.09-.18-.18-.45-.27-.72-.45-1.53-.18-2.42,1.17-3.14,2.6-1.53,4.94-3.41,7.45-5.12,1.17-.81,2.33-1.62,3.5-2.42.45-.36.99-.45,1.53-.36.9.09,1.62.45,2.33.81.45.27.9.63,1.35.81.9.54,1.89,1.08,2.87,1.53.81.45,1.62.9,2.42,1.26.54.27,1.17.45,1.8.72.63.18,1.17.54,1.53,1.08.54.99.36,1.17.27,2.25ZM617.65,545.29c0-.63-.27-1.17-.63-1.62-.81-.81-1.62-1.53-2.6-1.98-.27-.09-.63-.18-.9-.27-.54-.18-.99,0-1.08.45-.18.36-.27.72-.36,1.08-.18,1.17-.18,2.42-.27,3.59,0,1.62-.09,3.23-.09,4.76.09,4.49.18,8.89.27,13.38,0,1.35.18,2.6.27,3.95,0,.54.27.81.63,1.17,1.08.81,2.16,1.35,3.41,1.8.54.18.99,0,1.26-.54.27-.72.54-1.53.54-2.33,0-2.42.18-4.85.09-7.27-.09-1.62.09-7.37,0-8.53,0-2.6-.18-5.03-.54-7.63Z"/><path class="cls-14" d="M643.37,564.42c0,1.71.09,3.41.18,5.12,0,.63.18,1.26.54,1.8.36.54.81,1.08,1.17,1.71.81,1.08-2.42,4.58-3.14,5.75-.27.54-.72.99-1.26,1.35-.63.45-1.26.45-1.98,0-1.8-1.26-3.41-2.78-4.94-4.4-.18-.27-.36-.63-.54-.99-.27-.54-.27-1.08-.09-1.62.18-.36.27-.72.36-1.08.9-2.25,1.17-4.58,1.26-6.92,0-5.39-.09-10.78.09-16.17,0-1.89.09-3.86-.09-5.84,0-.36,0-.81-.09-1.17-.09-.81-.36-1.53-.99-2.16-.27-.27-.54-.54-.72-.9-.18-.36-.18-.72,0-1.08.27-.45.54-.9.9-1.26,1.08-1.08,2.25-2.16,3.5-3.23.54-.45,1.17-.54,1.89-.27.99.36,1.89.72,2.87,1.08.27.09.45.18.72.27.63.27.99.72.99,1.44,0,.45,0,.9.09,1.35,0,.27.09.45.18.72s.54.45.81.36.45-.18.72-.27c1.44-.72,2.69-1.62,3.77-2.87.45-.45.81-.9,1.26-1.35.27-.27.63-.45.99-.63.18-.09.54-.09.72,0,.45.18.81.36,1.17.63.72.45,1.35.99,1.98,1.53,1.53,1.35,2.96,2.69,4.49,4.04.72.63,1.08,1.44.99,2.34-.09.36-.09.63-.18.99-.72,5.3-1.08,10.69-1.17,16.08,0,.99,0,1.98-.09,3.05,0,1.62,0,3.23.09,4.94.09,1.53.63,2.96,1.44,4.22.36.45.63.99.9,1.44s.27.9,0,1.26c-.81,1.17-1.53,2.33-2.33,3.5-.45.63-.99,1.17-1.35,1.89-.27.36-.54.81-.9,1.17-.45.45-.99.63-1.53.27-.27-.09-.63-.18-.81-.45-1.53-1.26-3.05-2.51-4.58-3.77l-.36-.36c-.45-.54-.63-1.08-.36-1.8.09-.18.18-.45.27-.63.36-.54.36-1.08.36-1.71.09-1.35.18-2.78.18-4.13.09-6.47.18-12.93.18-19.4.09-.54,0-.99,0-1.53.09-1.26-.45-2.33-1.26-3.23-.45-.54-1.08-.99-1.62-1.44-.27-.27-.63-.27-.99,0-.72.54-1.44.99-2.07,1.62-.81.72-1.17,1.62-1.26,2.69-.09.54-.09,1.17-.09,1.71-.09,5.48-.27,10.87-.27,16.35Z"/><path class="cls-14" d="M678.07,557.24v1.17c.18,2.42.18,4.85.09,7.18v1.26c-.09,1.53.45,2.96,1.26,4.31.27.45.72.9,1.17,1.35.72.72.9,1.53.45,2.51-.9,1.8-1.98,3.5-3.14,5.12-.54.63-1.17,1.08-1.98,1.17-.45.09-.9.09-1.17-.18-1.35-1.26-3.05-1.89-4.49-2.96-.63-.45-1.35-.9-1.98-1.35-.45-.27-.63-.63-.63-1.17-.09-.54-.09-1.08,0-1.53.54-2.42.63-4.76.72-7.18,0-1.71.18-3.41.27-5.21.36-8.44.54-17.51.09-26.05-.09-1.53-.09-3.05-.09-4.58,0-1.35-.18-2.6-.36-3.95-.09-.81-.54-1.35-1.17-1.71-.36-.18-.72-.36-1.08-.54-.54-.36-.81-1.17-.45-1.8.81-1.08,1.53-2.16,2.33-3.23.81-1.08,1.71-2.07,2.6-3.05.36-.45.72-.81,1.08-1.17.9-.81,1.08-.72,1.89-.09,1.35.9,2.6,1.8,3.95,2.69.45.36.72.72.81,1.26.09.99.18,1.98.18,3.05,0,2.78-.18,5.66-.18,8.53-.09,3.77-.09,7.63-.18,11.41v14.73Z"/><path class="cls-14" d="M693.41,532.72c1.26,1.44,2.69,2.78,4.22,3.86l.18.18c.63.45.72,1.08.54,1.89-1.17,3.59-1.44,7.36-1.44,11.14-.09,2.51-.09,5.03-.09,7.54v7.54c.09.9.18,1.8.18,2.69.18,1.26.54,2.33,1.44,3.23.99.99.9,1.71.09,2.69-1.26,1.62-2.34,3.23-3.32,5.03-.45.72-.99,1.35-1.71,1.71-.45.27-.81.27-1.17,0-1.44-.9-2.87-1.89-4.13-3.05-.54-.45-.99-.99-1.35-1.53-.54-.72-.72-1.53-.45-2.42,0-.09,0-.27.09-.36.72-2.16.99-4.4.99-6.65-.09-7.54.72-15.54-.27-22.99-.09-.99-.45-1.89-1.26-2.51-.27-.36-.54-.63-.81-.99s-.27-.72-.09-1.17c.27-.54.81-.9,1.26-1.35,1.26-.99,2.42-1.98,3.68-2.96.63-.63,1.26-1.26,1.98-1.89.45-.36,1.08,0,1.44.36ZM693.59,515.84c.99,1.44,2.16,2.6,3.23,3.95.36.45.72.9.9,1.44.63,1.08.45,2.16-.36,3.05-.27.27-.63.54-.9.81l-2.25,2.78c-.45.54-.9,1.17-1.44,1.71-.45.54-1.08.54-1.71.18,0,0-.09,0-.18-.09-1.62-1.17-3.32-2.33-4.49-4.13-.36-.45-.72-.99-.9-1.62-.45-1.17-.27-2.33.54-3.32.36-.36.72-.81,1.17-1.17,1.35-1.26,2.79-2.6,4.22-3.95.18-.18.45-.27.54-.36.72.09,1.26.27,1.62.72Z"/><path class="cls-14" d="M713.92,564.42c0,1.71.09,3.41.18,5.12,0,.63.18,1.26.54,1.8.36.54.81,1.08,1.17,1.71.81,1.08-2.42,4.58-3.14,5.75-.27.54-.72.99-1.26,1.35-.63.45-1.26.45-1.98,0-1.8-1.26-3.41-2.78-4.94-4.4-.18-.27-.36-.63-.54-.99-.27-.54-.27-1.08-.09-1.62.18-.36.27-.72.36-1.08.9-2.25,1.17-4.58,1.26-6.92,0-5.39-.09-10.78.09-16.17,0-1.89.09-3.86-.09-5.84,0-.36,0-.81-.09-1.17-.09-.81-.36-1.53-.99-2.16-.27-.27-.54-.54-.72-.9-.18-.36-.18-.72,0-1.08.27-.45.54-.9.9-1.26,1.08-1.08,2.25-2.16,3.5-3.23.54-.45,1.17-.54,1.89-.27.99.36,1.89.72,2.87,1.08.27.09.45.18.72.27.63.27.99.72.99,1.44,0,.45,0,.9.09,1.35,0,.27.09.45.18.72s.54.45.81.36.45-.18.72-.27c1.44-.72,2.69-1.62,3.77-2.87.45-.45.81-.9,1.26-1.35.27-.27.63-.45.99-.63.18-.09.54-.09.72,0,.45.18.81.36,1.17.63.72.45,1.35.99,1.98,1.53,1.53,1.35,2.96,2.69,4.49,4.04.72.63,1.08,1.44.99,2.34-.09.36-.09.63-.18.99-.72,5.3-1.08,10.69-1.17,16.08,0,.99,0,1.98-.09,3.05,0,1.62,0,3.23.09,4.94.09,1.53.63,2.96,1.44,4.22.36.45.63.99.9,1.44s.27.9,0,1.26c-.81,1.17-1.53,2.33-2.33,3.5-.45.63-.99,1.17-1.35,1.89-.27.36-.54.81-.9,1.17-.45.45-.99.63-1.53.27-.27-.09-.63-.18-.81-.45-1.53-1.26-3.05-2.51-4.58-3.77l-.36-.36c-.45-.54-.63-1.08-.36-1.8.09-.18.18-.45.27-.63.36-.54.36-1.08.36-1.71.09-1.35.18-2.78.18-4.13.09-6.47.18-12.93.18-19.4.09-.54,0-.99,0-1.53.09-1.26-.45-2.33-1.26-3.23-.45-.54-1.08-.99-1.62-1.44-.27-.27-.63-.27-.99,0-.72.54-1.44.99-2.07,1.62-.81.72-1.17,1.62-1.26,2.69-.09.54-.09,1.17-.09,1.71-.09,5.48-.27,10.87-.27,16.35Z"/><path class="cls-14" d="M762.26,546.28c-.18,1.08-.45,2.25-.54,3.32-.54,4.76-5.03,9.61-8.89,12.04-.99.63-1.98,1.35-2.96,2.07-.36.27-.54.63-.63,1.17-.09,1.89.63,3.41,2.07,4.49.54.45,1.17.9,1.8,1.26.54.27,1.08.27,1.53-.09.63-.54,1.26-1.08,1.89-1.53.63-.63,1.26-1.26,1.89-1.8.81-.63,1.62-1.08,2.6-1.35,1.17-.27,2.51.81,2.42,1.98,0,.36-.18.72-.27.99-.18.27-.45.45-.72.72-1.8,1.71-3.59,3.5-5.39,5.3-.27.18-.45.36-.63.54l-1.08,1.17c-.99,1.08-2.16,2.16-3.23,3.14-.63.63-1.44.99-2.25.99-1.44,0-4.22-2.33-5.03-3.32-1.17-1.62-2.69-2.69-4.58-3.5-.9,0-1.98-1.62-2.16-2.6-.09-.81-.09-1.71.09-2.51,1.08-4.85.45-17.6.45-22.9v-3.59c0-.54,0-1.08.09-1.62,0-.45.18-.72.54-.99.63-.36,1.26-.81,1.98-.99,2.33-.45,4.22-1.8,6.2-3.05.99-.72,1.98-1.35,2.96-1.98.9-.63,1.89-1.08,2.96-1.17.63-.09,1.35,0,1.89.27s.99.45,1.44.81c1.26.9,2.42,1.8,3.59,2.79,1.35,1.26,2.07,2.78,2.25,4.58.09,1.89-.09,3.5-.27,5.39ZM748.43,554.99c0,.54,0,1.08.09,1.53,0,.27.18.54.36.72.18.27.81.27,1.08.09.99-.99,2.42-5.48,2.69-7,.45-1.71.45-3.41-.09-5.12-.27-1.08-.99-1.8-1.89-2.42-.18-.09-.63-.09-.72.09-.18.27-.36.45-.45.72-.27.63-.45,1.26-.54,1.89-.72,3.05-.54,6.38-.54,9.52Z"/><path class="cls-14" d="M794.33,564.87v2.42c.09,2.07.63,3.95,2.07,5.48.27.27.36.63.09.9-.27.45-.45.99-.81,1.35-.99,1.26-1.98,2.42-2.96,3.59-.54.63-1.17,1.35-1.8,1.89-.36.45-.9.45-1.17.09-1.44-1.62-3.23-2.96-4.85-4.22-.63-.45-1.08-.99-1.53-1.62-.09-.18-.18-.45-.09-.72.9-2.07,1.17-4.22,1.26-6.38.45-6.92.54-14.64.27-21.47,0-1.71-.54-3.32-1.71-4.58-.45-.45-.81-.9-.99-1.53-.09-.36-.09-.72.18-1.08,1.62-1.35,2.78-3.05,4.22-4.67.72-.81,1.44-1.71,2.25-2.51.27-.27.72-.36,1.08-.18,1.44.81,2.78,1.62,3.95,2.6.36.36.63.72.54,1.17v2.42c0,.36,0,.72.09,1.17.09.36.72.72,1.08.45.18-.09.36-.18.54-.27.81-.72,1.71-1.53,2.51-2.34,1.17-1.08,2.33-2.51,3.59-3.59.45-.45.9-.45,1.44-.36,2.51.81,3.86,3.5,5.93,5.03.27.18.45.54.45.81.18.9-.09,1.53-.63,2.25-1.71,2.07-3.77,3.86-5.75,5.57-.45.45-.81.45-1.26.18-.45-.27-.9-.54-1.35-.81-.72-.63-1.44-1.17-2.16-1.8-.27-.18-.54-.45-.9-.63-.27-.09-.54-.18-.81-.09-.72.18-1.35.63-1.89,1.08-.18.18-.36.45-.36.72-.18.63-.27,1.26-.27,1.98-.45,5.84-.18,11.77-.27,17.69Z"/><path class="cls-14" d="M836.36,546.28c-.18,1.08-.45,2.25-.54,3.32-.54,4.76-5.03,9.61-8.89,12.04-.99.63-1.98,1.35-2.96,2.07-.36.27-.54.63-.63,1.17-.09,1.89.63,3.41,2.07,4.49.54.45,1.17.9,1.8,1.26.54.27,1.08.27,1.53-.09.63-.54,1.26-1.08,1.89-1.53.63-.63,1.26-1.26,1.89-1.8.81-.63,1.62-1.08,2.6-1.35,1.17-.27,2.51.81,2.42,1.98,0,.36-.18.72-.27.99-.18.27-.45.45-.72.72-1.8,1.71-3.59,3.5-5.39,5.3-.27.18-.45.36-.63.54l-1.08,1.17c-.99,1.08-2.16,2.16-3.23,3.14-.63.63-1.44.99-2.25.99-1.44,0-4.22-2.33-5.03-3.32-1.17-1.62-2.69-2.69-4.58-3.5-.9,0-1.98-1.62-2.16-2.6-.09-.81-.09-1.71.09-2.51,1.08-4.85.45-17.6.45-22.9v-3.59c0-.54,0-1.08.09-1.62,0-.45.18-.72.54-.99.63-.36,1.26-.81,1.98-.99,2.33-.45,4.22-1.8,6.2-3.05.99-.72,1.98-1.35,2.96-1.98.9-.63,1.89-1.08,2.96-1.17.63-.09,1.35,0,1.89.27s.99.45,1.44.81c1.26.9,2.42,1.8,3.59,2.79,1.35,1.26,2.07,2.78,2.25,4.58.09,1.89-.09,3.5-.27,5.39ZM822.53,554.99c0,.54,0,1.08.09,1.53,0,.27.18.54.36.72.18.27.81.27,1.08.09.99-.99,2.42-5.48,2.69-7,.45-1.71.45-3.41-.09-5.12-.27-1.08-.99-1.8-1.89-2.42-.18-.09-.63-.09-.72.09-.18.27-.36.45-.45.72-.27.63-.45,1.26-.54,1.89-.72,3.05-.54,6.38-.54,9.52Z"/><path class="cls-14" d="M853.28,568.38c.09.09.18.18.27.18,1.62,1.08,2.78,1.8,4.4,2.78.27.18.63.18.9-.09.36-.36.81-.81,1.17-1.26.72-.72,1.35-1.53,2.07-2.33.36-.45.81-.9,1.17-1.26.72-.63,1.53-.81,2.33-.36l.81.54c.45.36.63.99.45,1.44-.27.63-.54,1.17-.9,1.71-1.8,2.78-3.77,5.48-5.75,8.17-.63.9-1.26,1.8-1.98,2.69-.63.81-1.44.99-2.42.72-1.44-.36-2.69-.9-3.95-1.71-1.8-1.17-3.59-2.42-5.39-3.68-.63-.45-1.44-.9-2.16-1.35-.54-.36-.99-.81-1.35-1.35-.36-.54-.63-1.08-.54-1.71v-.36l.09-.81v-.36c.27-6.92.54-15.9.36-22.81-.09-1.26-.18-2.51-.27-3.77,0-.27-.09-.63-.09-.99-.09-1.26.36-2.25,1.35-3.05.54-.54,1.08-.9,1.62-1.35,2.07-1.44,4.04-2.87,5.93-4.49.54-.54,1.08-1.08,1.71-1.62.45-.36,1.08-.45,1.53-.09.9.54,1.71,1.08,2.42,1.71,2.33,1.89,5.21,3.05,8.08,3.86,1.08.45,1.44.99,1.53,2.16,0,.18-.09.45-.09.72-.18,1.89-.09,3.68.09,5.57.09.54.18,1.17.18,1.8,0,.45-.09.99-.18,1.53-.18.81-.63,1.44-1.35,1.8-1.62.9-2.96,2.16-4.22,3.41-.45.45-.9.81-1.35,1.08-.54.36-1.26,0-1.44-.63-.09-.27-.09-.63-.18-.99v-4.67c-.09-.9,0-1.8-.09-2.6,0-1.17-.45-2.51-1.44-3.14-.99-.54-1.89-1.08-2.87-1.71-.27-.09-.54-.09-.72.09-.72,1.08-.9,1.8-.9,3.14-.18,3.95-1.44,21.11,1.17,23.44Z"/><path class="cls-14" d="M897.91,540.62c-.45,3.14-.63,6.56-.63,9.79,0,.99.09,1.98.09,2.87v3.86c0,1.62-.09,3.23-.09,4.94,0,1.62.36,3.14.72,4.67.18.63.27,1.26.36,1.89.09.45,0,.9-.36,1.17-.45.36-.81.63-1.26.9-2.96,1.98-5.75,4.22-8.26,6.65-1.35,1.26-2.69,2.42-4.04,3.68-.18.18-.45.45-.72.63-.54.36-1.17.36-1.8,0-1.44-.99-2.96-1.8-4.31-2.87-1.17-.9-2.33-1.71-3.59-2.33-.54-.36-1.08-.72-1.62-1.08-.63-.54-.9-1.26-.72-2.07.09-.54.27-.99.45-1.44.27-.9.45-1.89.45-2.78,0-4.49.36-21.82-.27-23.98-.09-.45-.27-.81-.36-1.17-.09-.18-.18-.45-.27-.72-.45-1.53-.18-2.42,1.17-3.14,2.6-1.53,4.94-3.41,7.45-5.12,1.17-.81,2.33-1.62,3.5-2.42.45-.36.99-.45,1.53-.36.9.09,1.62.45,2.33.81.45.27.9.63,1.35.81.9.54,1.89,1.08,2.87,1.53.81.45,1.62.9,2.42,1.26.54.27,1.17.45,1.8.72.63.18,1.17.54,1.53,1.08.54.99.36,1.17.27,2.25ZM887.67,545.29c0-.63-.27-1.17-.63-1.62-.81-.81-1.62-1.53-2.6-1.98-.27-.09-.63-.18-.9-.27-.54-.18-.99,0-1.08.45-.18.36-.27.72-.36,1.08-.18,1.17-.18,2.42-.27,3.59,0,1.62-.09,3.23-.09,4.76.09,4.49.18,8.89.27,13.38,0,1.35.18,2.6.27,3.95,0,.54.27.81.63,1.17,1.08.81,2.16,1.35,3.41,1.8.54.18.99,0,1.26-.54.27-.72.54-1.53.54-2.33,0-2.42.18-4.85.09-7.27-.09-1.62.09-7.37,0-8.53,0-2.6-.18-5.03-.54-7.63Z"/><path class="cls-14" d="M914.92,564.87v2.42c.09,2.07.63,3.95,2.07,5.48.27.27.36.63.09.9-.27.45-.45.99-.81,1.35-.99,1.26-1.98,2.42-2.96,3.59-.54.63-1.17,1.35-1.8,1.89-.36.45-.9.45-1.17.09-1.44-1.62-3.23-2.96-4.85-4.22-.63-.45-1.08-.99-1.53-1.62-.09-.18-.18-.45-.09-.72.9-2.07,1.17-4.22,1.26-6.38.45-6.92.54-14.64.27-21.47,0-1.71-.54-3.32-1.71-4.58-.45-.45-.81-.9-.99-1.53-.09-.36-.09-.72.18-1.08,1.62-1.35,2.78-3.05,4.22-4.67.72-.81,1.44-1.71,2.25-2.51.27-.27.72-.36,1.08-.18,1.44.81,2.78,1.62,3.95,2.6.36.36.63.72.54,1.17v2.42c0,.36,0,.72.09,1.17.09.36.72.72,1.08.45.18-.09.36-.18.54-.27.81-.72,1.71-1.53,2.51-2.34,1.17-1.08,2.33-2.51,3.59-3.59.45-.45.9-.45,1.44-.36,2.51.81,3.86,3.5,5.93,5.03.27.18.45.54.45.81.18.9-.09,1.53-.63,2.25-1.71,2.07-3.77,3.86-5.75,5.57-.45.45-.81.45-1.26.18-.45-.27-.9-.54-1.35-.81-.72-.63-1.44-1.17-2.16-1.8-.27-.18-.54-.45-.9-.63-.27-.09-.54-.18-.81-.09-.72.18-1.35.63-1.89,1.08-.18.18-.36.45-.36.72-.18.63-.27,1.26-.27,1.98-.45,5.84-.18,11.77-.27,17.69Z"/><path class="cls-14" d="M954.17,528.14c-.09-.81-.36-1.62-.63-2.42-.54-1.08-1.08-2.07-2.16-2.78-.99-.81-.99-1.44-.09-2.42,1.44-1.71,2.96-3.41,4.49-5.12.36-.36.63-.81.99-1.17.45-.36,1.17-.36,1.62-.09,1.35,1.35,2.87,2.69,4.4,3.95.27.09.36.27.63.45.72.72.9,1.62.72,2.6-.54,2.78-1.08,5.39-1.08,8.26-.09.63-.09,1.17-.09,1.71,0,3.32-.18,6.65-.27,9.88-.09,2.42-.09,4.85.09,7.27.18,5.57.36,11.23.63,16.89.09.81.81,2.42,1.35,3.05.63.9,1.26,1.8,1.98,2.52.45.54.36,1.08,0,1.62l-.81.81c-1.53,1.26-2.96,2.69-4.22,4.4-.45.54-.99,1.08-1.53,1.71-.09.09-.27.18-.45.27-.27.18-.54.27-.9.09-.63-.27-1.08-.81-1.44-1.44-.63-1.26-2.16-3.23-3.23-4.13-.18-.27-.45-.45-.81-.54-.36-.18-.72-.18-1.08.09-.72.54-1.44.99-2.16,1.53-.45.36-.81.72-1.26,1.17-1.26,1.17-2.51,2.42-3.77,3.68-.54.54-1.08.45-1.53.18-.54-.36-1.08-.72-1.53-1.17l-1.62-1.35c-.54-.54-1.17-.99-1.8-1.35-1.26-.81-2.51-1.8-3.68-2.69-.27-.27-.63-.54-.81-.81-1.17-1.26-1.26-1.08-1.08-3.05.27-1.8.45-18.5.18-19.85-.09-.63-.09-6.83-.18-7.37-.09-.72.09-1.44.63-1.8,2.51-1.26,10.24-3.59,15.54-8.35.36-.36.81-.45,1.35-.18,1.17.45,2.16,1.8,3.23,2.33.72.36.63-.45.63-3.5-.09-.72-.18-1.8-.27-2.87ZM942.49,564.42c0,1.98-.09,1.62,1.26,2.96.81.9,1.71,1.71,2.6,2.42.81.63,2.42,1.26,3.32.63,1.17-.81,3.59-2.6,3.59-4.22,0-1.71.09-3.5.09-5.3v-8.53c0-.81,0-1.62-.27-2.42-.36-1.26-7.72-8.08-8.44-8.89-.54-.54-2.07,0-2.07,1.44,0,5.84-.09,16.08-.09,21.92Z"/><path class="cls-14" d="M987.67,527.15c-.09-1.71-.72-3.23-1.89-4.4l-.99-.99c-.54-.63-.54-1.26-.27-1.98.45-.81.99-1.62,1.71-2.25.18-.18.36-.36.54-.45,1.08-.9,2.07-1.8,3.05-2.69.54-.45,1.08-.54,1.71-.27.45.27.9.54,1.35.72,1.44.81,2.33,1.35,3.77,2.16.27.18.63.36.9.63.54.45.81.99.63,1.71-.18.63-.45,1.17-.54,1.8-.54,2.16-.81,4.4-.81,6.65v7.37c0,.63,0,1.26.09,1.89,0,.45.09,1.71,1.44.72.27-.18,5.21-4.76,5.48-5.21.36-.54.81-.72,1.44-.63.63,0,7.46,5.93,7.63,6.11.45.36.72.72.72,1.35-.09.45-.09.99-.09,1.44-.18,2.6-.36,4.13-.36,6.74,0,2.25.18,2.16-1.71,3.68-.63.45-1.17.99-1.71,1.53-.36.27-.63.63-.9.99-.72.9-.9,1.35,0,2.52.54.63,1.26,1.26,2.07,1.62.54.18.99.36,1.44.63.99.36,1.62,1.17,1.8,2.25.09.9.09,1.8,0,2.69,0,1.26-.09,2.51-.27,3.77-.18,1.98.27,3.77,1.62,5.3.9.99.9,1.62.09,2.87-1.17,1.53-2.33,3.14-3.5,4.76-.09.09-.18.27-.27.45-.45.45-.99.72-1.62.72-.54,0-.99-.18-1.44-.54-1.26-1.26-2.51-2.51-3.95-3.59-.18-.18-.36-.36-.36-.63v-.81c.09-1.53.18-3.14.18-4.67.09-1.71.09-3.41.18-5.12,0-1.35-.63-2.33-1.8-3.05-.63-.36-1.35-.63-1.98-.99-.72-.36-1.44-.54-2.07-.9-1.53-.63-1.98,2.33-2.16,2.96-.27,1.44-.18,2.96-.09,4.49.18,1.26,0,2.34.63,3.32.27.36.45.72.72,1.08.81.9.63,1.08.18,1.89-1.35,1.89-2.69,3.68-3.77,5.75-.18.27-.45.36-.72.45-.81.09-1.53,0-2.16-.54-1.17-.81-2.33-1.53-3.5-2.25-.63-.45-1.26-.9-1.8-1.44-.27-.18-.54-.54-.81-.81-.36-.63-.54-1.26-.18-1.98.9-1.53,1.26-2.96,1.53-4.67,1.44-9.43.99-23.89,1.17-34.22-.09-1.98-.18-4.94-.36-7.9ZM996.83,556.25c.09.54.63.81.99.54.54-.27,1.08-.63,1.62-.99,1.26-.9,2.34-1.89,3.59-2.78.9-.63,1.26-1.44,1.44-2.33v-6.65c0-.63-.27-1.17-.81-1.44-.81-.54-1.71-1.08-2.6-1.53-.36-.18-.72-.18-1.08.09-.72.45-1.35.9-2.07,1.35-.45.36-.72.9-.81,1.44,0,.54-.36,10.51-.36,11.59,0,.27.09.45.09.72Z"/><path class="cls-14" d="M1045.29,546.28c-.18,1.08-.45,2.25-.54,3.32-.54,4.76-5.03,9.61-8.89,12.04-.99.63-1.98,1.35-2.96,2.07-.36.27-.54.63-.63,1.17-.09,1.89.63,3.41,2.07,4.49.54.45,1.17.9,1.8,1.26.54.27,1.08.27,1.53-.09.63-.54,1.26-1.08,1.89-1.53.63-.63,1.26-1.26,1.89-1.8.81-.63,1.62-1.08,2.6-1.35,1.17-.27,2.51.81,2.42,1.98,0,.36-.18.72-.27.99-.18.27-.45.45-.72.72-1.8,1.71-3.59,3.5-5.39,5.3-.27.18-.45.36-.63.54l-1.08,1.17c-.99,1.08-2.16,2.16-3.23,3.14-.63.63-1.44.99-2.25.99-1.44,0-4.22-2.33-5.03-3.32-1.17-1.62-2.69-2.69-4.58-3.5-.9,0-1.98-1.62-2.16-2.6-.09-.81-.09-1.71.09-2.51,1.08-4.85.45-17.6.45-22.9v-3.59c0-.54,0-1.08.09-1.62,0-.45.18-.72.54-.99.63-.36,1.26-.81,1.98-.99,2.33-.45,4.22-1.8,6.2-3.05.99-.72,1.98-1.35,2.96-1.98.9-.63,1.89-1.08,2.96-1.17.63-.09,1.35,0,1.89.27s.99.45,1.44.81c1.26.9,2.42,1.8,3.59,2.79,1.35,1.26,2.07,2.78,2.25,4.58.09,1.89-.09,3.5-.27,5.39ZM1031.46,554.99c0,.54,0,1.08.09,1.53,0,.27.18.54.36.72.18.27.81.27,1.08.09.99-.99,2.42-5.48,2.69-7,.45-1.71.45-3.41-.09-5.12-.27-1.08-.99-1.8-1.89-2.42-.18-.09-.63-.09-.72.09-.18.27-.36.45-.45.72-.27.63-.45,1.26-.54,1.89-.72,3.05-.54,6.38-.54,9.52Z"/><path class="cls-14" d="M1075.68,546.28c-.18,1.08-.45,2.25-.54,3.32-.54,4.76-5.03,9.61-8.89,12.04-.99.63-1.98,1.35-2.96,2.07-.36.27-.54.63-.63,1.17-.09,1.89.63,3.41,2.07,4.49.54.45,1.17.9,1.8,1.26.54.27,1.08.27,1.53-.09.63-.54,1.26-1.08,1.89-1.53.63-.63,1.26-1.26,1.89-1.8.81-.63,1.62-1.08,2.6-1.35,1.17-.27,2.51.81,2.42,1.98,0,.36-.18.72-.27.99-.18.27-.45.45-.72.72-1.8,1.71-3.59,3.5-5.39,5.3-.27.18-.45.36-.63.54l-1.08,1.17c-.99,1.08-2.16,2.16-3.23,3.14-.63.63-1.44.99-2.25.99-1.44,0-4.22-2.33-5.03-3.32-1.17-1.62-2.69-2.69-4.58-3.5-.9,0-1.98-1.62-2.16-2.6-.09-.81-.09-1.71.09-2.51,1.08-4.85.45-17.6.45-22.9v-3.59c0-.54,0-1.08.09-1.62,0-.45.18-.72.54-.99.63-.36,1.26-.81,1.98-.99,2.33-.45,4.22-1.8,6.2-3.05.99-.72,1.98-1.35,2.96-1.98.9-.63,1.89-1.08,2.96-1.17.63-.09,1.35,0,1.89.27s.99.45,1.44.81c1.26.9,2.42,1.8,3.59,2.79,1.35,1.26,2.07,2.78,2.25,4.58.09,1.89-.09,3.5-.27,5.39ZM1061.85,554.99c0,.54,0,1.08.09,1.53,0,.27.18.54.36.72.18.27.81.27,1.08.09.99-.99,2.42-5.48,2.69-7,.45-1.71.45-3.41-.09-5.12-.27-1.08-.99-1.8-1.89-2.42-.18-.09-.63-.09-.72.09-.18.27-.36.45-.45.72-.27.63-.45,1.26-.54,1.89-.72,3.05-.54,6.38-.54,9.52Z"/><path class="cls-14" d="M1110.61,557.96c.09.99.27,1.98.54,2.87.18.9,0,1.71-.54,2.33-.9.81-1.71,1.62-2.6,2.51-3.14,3.05-6.2,7.99-9.07,11.41-.45.54-.9.99-1.35,1.44-.45.45-.99.63-1.44.63-.54,0-.99-.18-1.35-.54-.9-.81-1.89-1.53-2.78-2.25-.09-.09-.45.09-.45.27-.09.27-.18.54-.18.81-.09.9-.18,1.8-.18,2.69.09,1.44.18,1.17.27,2.6.09.9.45,1.62.99,2.25.27.45.72.81.99,1.17.54.63.54,1.35.18,1.98-1.08,1.71-2.25,3.5-3.32,5.3-.36.54-.81,1.08-1.26,1.53-.45.45-1.26.54-1.8.18-.18-.18-.45-.36-.54-.54-1.08-1.26-2.25-2.25-3.41-3.32-.63-.63-1.26-1.17-1.71-1.98-.18-.27-.36-.63-.09-.9,1.08-1.53,1.35-3.23,1.35-5.12,0-12.66.18-25.33-.18-37.9-.09-.72.09-1.26-.18-1.98-.18-.45-.45-.81-.81-1.17-.18-.09-.36-.27-.54-.45-.36-.45-.45-1.08-.18-1.62.18-.18.27-.45.45-.63,1.53-1.8,2.96-3.59,4.49-5.39.09-.18.27-.27.45-.45.27-.27.63-.36.99-.18.36.18.63.36.9.54.9.54,1.8,1.17,2.78,1.8.72.45,1.17,1.17,1.17,2.16,0,.72.27.99.81,1.17.27.09.54.09.72-.09.45-.27.81-.63,1.26-.9,1.35-1.08,2.69-2.16,3.86-3.41.72-.99,1.8-1.53,2.69-2.33.27-.27.72-.27,1.08-.09.45.18.81.27,1.17.54.81.54,1.53,1.17,2.16,1.8,1.17.99,2.34,1.98,3.59,2.78.18.09.36.27.63.45.27.27.45.72.45,1.08.09.36.09.72.09,1.08-.09,5.93-.45,11.95-.09,17.87ZM1101.36,549.52c.09-1.08.09-2.16.09-3.14,0-.63-.18-1.08-.54-1.53-.81-.72-1.62-1.53-2.42-2.34-.27-.18-.63-.18-.9,0-.09.09-.27.18-.36.27-1.26,1.17-2.52,2.42-3.77,3.68-.63.63-.9,1.35-.99,2.16-.09.45-.09.9-.09,1.26-.09,1.98-.27,3.86-.36,5.84,0,1.98,0,4.04-.09,6.02,0,1.17.36,2.33.99,3.32.45.72,3.41,4.13,4.31,4.85.27.27.63.27.9,0,.99-.63,3.05-3.95,3.05-4.4,0-5.3.09-10.69.18-15.99Z"/><path class="cls-14" d="M1140.22,546.28c-.18,1.08-.45,2.25-.54,3.32-.54,4.76-5.03,9.61-8.89,12.04-.99.63-1.98,1.35-2.96,2.07-.36.27-.54.63-.63,1.17-.09,1.89.63,3.41,2.07,4.49.54.45,1.17.9,1.8,1.26.54.27,1.08.27,1.53-.09.63-.54,1.26-1.08,1.89-1.53.63-.63,1.26-1.26,1.89-1.8.81-.63,1.62-1.08,2.6-1.35,1.17-.27,2.51.81,2.42,1.98,0,.36-.18.72-.27.99-.18.27-.45.45-.72.72-1.8,1.71-3.59,3.5-5.39,5.3-.27.18-.45.36-.63.54l-1.08,1.17c-.99,1.08-2.16,2.16-3.23,3.14-.63.63-1.44.99-2.25.99-1.44,0-4.22-2.33-5.03-3.32-1.17-1.62-2.69-2.69-4.58-3.5-.9,0-1.98-1.62-2.16-2.6-.09-.81-.09-1.71.09-2.51,1.08-4.85.45-17.6.45-22.9v-3.59c0-.54,0-1.08.09-1.62,0-.45.18-.72.54-.99.63-.36,1.26-.81,1.98-.99,2.33-.45,4.22-1.8,6.2-3.05.99-.72,1.98-1.35,2.96-1.98.9-.63,1.89-1.08,2.96-1.17.63-.09,1.35,0,1.89.27s.99.45,1.44.81c1.26.9,2.42,1.8,3.59,2.79,1.35,1.26,2.07,2.78,2.25,4.58.09,1.89-.09,3.5-.27,5.39ZM1126.38,554.99c0,.54,0,1.08.09,1.53,0,.27.18.54.36.72.18.27.81.27,1.08.09.99-.99,2.42-5.48,2.69-7,.45-1.71.45-3.41-.09-5.12-.27-1.08-.99-1.8-1.89-2.42-.18-.09-.63-.09-.72.09-.18.27-.36.45-.45.72-.27.63-.45,1.26-.54,1.89-.72,3.05-.54,6.38-.54,9.52Z"/><path class="cls-14" d="M1157.41,564.87v2.42c.09,2.07.63,3.95,2.07,5.48.27.27.36.63.09.9-.27.45-.45.99-.81,1.35-.99,1.26-1.98,2.42-2.96,3.59-.54.63-1.17,1.35-1.8,1.89-.36.45-.9.45-1.17.09-1.44-1.62-3.23-2.96-4.85-4.22-.63-.45-1.08-.99-1.53-1.62-.09-.18-.18-.45-.09-.72.9-2.07,1.17-4.22,1.26-6.38.45-6.92.54-14.64.27-21.47,0-1.71-.54-3.32-1.71-4.58-.45-.45-.81-.9-.99-1.53-.09-.36-.09-.72.18-1.08,1.62-1.35,2.78-3.05,4.22-4.67.72-.81,1.44-1.71,2.25-2.51.27-.27.72-.36,1.08-.18,1.44.81,2.78,1.62,3.95,2.6.36.36.63.72.54,1.17v2.42c0,.36,0,.72.09,1.17.09.36.72.72,1.08.45.18-.09.36-.18.54-.27.81-.72,1.71-1.53,2.51-2.34,1.17-1.08,2.33-2.51,3.59-3.59.45-.45.9-.45,1.44-.36,2.51.81,3.86,3.5,5.93,5.03.27.18.45.54.45.81.18.9-.09,1.53-.63,2.25-1.71,2.07-3.77,3.86-5.75,5.57-.45.45-.81.45-1.26.18-.45-.27-.9-.54-1.35-.81-.72-.63-1.44-1.17-2.16-1.8-.27-.18-.54-.45-.9-.63-.27-.09-.54-.18-.81-.09-.72.18-1.35.63-1.89,1.08-.18.18-.36.45-.36.72-.18.63-.27,1.26-.27,1.98-.45,5.84-.18,11.77-.27,17.69Z"/><path class="cls-3" d="M960.05,493.35l-9.27-8.19c-2.16-2.01-2.47-4.32-.46-6.49l8.18-9.42c2.01-2.16,4.32-2.47,6.64-.46l8.34,6.95c2.32,2.01,2.47,4.17.77,6.49l-7.72,10.5c-1.85,2.47-4.17,2.78-6.49.62Z"/><path class="cls-3" d="M1156.03,493.35l-9.27-8.19c-2.16-2.01-2.47-4.32-.46-6.49l8.18-9.42c2.01-2.16,4.32-2.47,6.64-.46l8.34,6.95c2.32,2.01,2.47,4.17.77,6.49l-7.72,10.5c-1.85,2.47-4.17,2.78-6.49.62Z"/><path class="cls-3" d="M755.74,493.35l-9.27-8.19c-2.16-2.01-2.47-4.32-.46-6.49l8.18-9.42c2.01-2.16,4.32-2.47,6.64-.46l8.34,6.95c2.32,2.01,2.47,4.17.77,6.49l-7.72,10.5c-1.85,2.47-4.17,2.78-6.49.62Z"/><path class="cls-1" d="M58.4,265.67c-4.16-.18-8.91-.54-13.81-1.24,4.9.7,9.65,1.06,13.81,1.24Z"/><path class="cls-1" d="M9.03,239.89c-.03-.8-.08-1.61-.11-2.41,0,.83.03,1.62.11,2.41,1.53,15.36,17.56,21.61,33.1,24.17-15.54-2.56-31.57-8.81-33.1-24.17Z"/><path class="cls-1" d="M502.81,264.08c15.58-2.54,31.73-8.78,33.27-24.19.08-.8.11-1.6.11-2.44-.03.81-.08,1.63-.11,2.44-1.54,15.42-17.68,21.65-33.27,24.2Z"/><path class="cls-1" d="M500.99,264.36c-5.08.75-10.02,1.12-14.32,1.31,4.3-.18,9.24-.56,14.32-1.31Z"/><path class="cls-10" d="M57.93,209.09c-16.78.47-42.47,6.59-47.9,22.26-.84,2.4-1.07,4.57-1.12,6.09,0,0,0,.01,0,.02v-.02s0,.03,0,.04c.03.8.08,1.61.11,2.41,1.53,15.36,17.56,21.6,33.1,24.17.38.06.77.13,1.15.18,2.07-17.75-1.33-33.79-1.33-33.79,1,1.49,2.77,3.89,5.46,6.31,15.07,13.62,44.06,14.38,55.47.68,1.96-2.35,3.25-4.95,4.1-7.55.05-.4.13-1.21-.02-2.27-1.67-11.58-28.22-19.11-49.03-18.54Z"/><path class="cls-9" d="M536.19,237.44c-.05-1.52-.28-3.69-1.12-6.09-5.42-15.67-31.12-21.79-47.9-22.26-20.81-.57-47.36,6.96-49.03,18.54-.15,1.05-.06,1.86-.02,2.27.84,2.59,2.14,5.2,4.1,7.55,11.42,13.7,40.4,12.94,55.47-.68,2.69-2.43,4.45-4.83,5.46-6.31,0,0-3.4,16.05-1.33,33.79.33-.05.65-.1.98-.16,15.59-2.55,31.73-8.78,33.27-24.2.03-.81.08-1.63.11-2.44,0,0,0,0,0,0h0s0,0,0,0Z"/><path class="cls-8" d="M534.68,555.85c-9.35-29.09-15.43-59.14-19.62-89.37-1.43-10.25-2.58-20.56-3.16-30.91-.53-9.12-.79-18.38.21-27.48,1.15-10.26,4.47-20.11,7.6-29.91,4.43-13.97,8.08-28.11,10.54-42.58,5.55-32.64,5.94-65.17,5.94-98.16,0,0,0,0,0,0,0,.84-.03,1.64-.11,2.44-1.54,15.42-17.69,21.65-33.27,24.19-.33.05-.65.11-.98.16-.28.04-.56.08-.85.12-5.08.75-10.02,1.12-14.32,1.31-1.27.06-2.5.1-3.65.13-5.9.15-11.82.21-17.74.2-6.75-.01-13.51-.12-20.26-.35-.94-.03-1.89-.07-2.85-.11-5.24-.2-10.48-.45-15.71-.78-2.77,12.5-9.32,24.17-19.15,32.75-15.68,13.68-39.41,17.95-60.43,20.87-3.89.54-7.45.91-10.9,1.27-11.09,1.16-19.84,2.07-30.39,7.95-4.72,2.63-12.61,7.03-13.16,12.67-.33,3.3,1.43,7.5,3.54,8.48.12.06.17.07.17.07.55,0,2.14-.58,3.41-1.04,3.59-1.3,8.5-3.08,15.67-3.08h.47c2.83-.12,15.04-.35,25.62,8.7,9.81,8.4,11.81,19.31,12.35,22.52,1.35,8.1-.19,14.73-1.29,18.26-1.73-3.33-4.76-7.93-9.9-11.83-9.43-7.15-19.68-7.13-22.53-7.09-1.62.03-4,.08-7.05.8-9.84,2.31-18.65,9.85-22.45,19.22-1.85,4.59-2.37,7.97-2.82,10.94-.72,4.74-1.54,10.1-7.38,14.97-2.46,2.05-5.05,3.32-7.68,4.09-3.25.96-6.57,1.15-9.78,1.15-.67,0-1.36,0-2.05,0-.64-.01-1.29-.02-1.94-.02-4.75,0-7.93.46-11.08,2.9-1.38,1.06-1.79,1.71-2.53,2.89-1.13,1.79-2.85,4.5-6.89,6.86-3.7,2.17-7.93,3.27-12.57,3.27-7.53,0-15.01-2.92-21.02-5.26-1.89-.74-3.67-1.43-5.23-1.96-4.65-1.55-9.5-2.3-14.81-2.3-7.53,0-15.84,1.58-24.8,4.69-9.67,15.68-18.86,31.57-27.32,47.58l-.07.13c-2.4,4.55-6.58,7.54-11.23,8.6l-12.65,58.6c-.04,1.07-.65,2.03-1.59,2.53l-46.95,24.98,19-32.74c.79.2,1.61.32,2.47.32,5.45,0,9.87-4.42,9.87-9.87s-4.42-9.87-9.87-9.87-9.87,4.42-9.87,9.87c0,2.79,1.16,5.31,3.03,7.1l-18.96,32.67-1.6-53.09c-.02-1.09.53-2.11,1.46-2.68l45.94-38.85c-1.46-4.26-1.24-9.09,1.02-13.39.14-.26.31-.56.46-.81,7.72-12.86,15.76-25.35,24.04-37.59-5.59-8.62-12.34-22.64-12.31-40.55,0-3.84.56-35.93,24.28-54,4.05-3.09,7.86-5.07,10.61-6.3-3.27,10.14-4.14,18.11-2.83,20.83,1.11,2.31,2.8,3.13,2.8,3.13,1.06.52,2.04.52,2.54.52,2.81,0,5.96-1.6,7.82-3.97,2.83-3.62,3.9-9.14,2.93-15.16-1.01-6.33-4.04-12.68-7.05-18.63l-.99-1.95c-3.21-6.31-6.53-12.84-8.5-20.17-2.83-10.52-2.52-21.87.73-32.54-3.19.41-6.39.77-9.59,1.07-11.45,1.09-22.98,1.83-34.52,2.26-.96.04-1.91.08-2.85.11-6.75.22-13.5.33-20.24.35-5.93.01-11.85-.05-17.76-.2-1.16-.03-2.4-.07-3.69-.13-4.16-.18-8.91-.54-13.81-1.24-.44-.06-.88-.12-1.32-.19-.38-.06-.76-.12-1.15-.18-15.54-2.56-31.57-8.8-33.1-24.17-.08-.79-.11-1.58-.11-2.41,0,0,0-.01,0-.02,0,32.98.39,65.5,5.94,98.14,2.46,14.47,6.11,28.61,10.54,42.58,3.13,9.8,6.45,19.65,7.6,29.91,1,9.1.74,18.36.21,27.48-.59,10.35-1.74,20.66-3.16,30.91-4.19,30.23-10.27,60.28-19.63,89.37-2.2,6.84-3.3,13.89-1.5,21.03,3.46,13.76,16.5,21.34,22.05,24.53,28.5,16.38,64.15,8.73,70.67,7.38,64.55-13.41,138-17.64,170.92-17.64s106.37,4.24,170.92,17.64c6.52,1.35,42.17,9,70.67-7.38,5.55-3.19,18.58-10.77,22.05-24.53,1.8-7.14.7-14.19-1.51-21.03ZM441.66,502.65c-1.29,2.32-2.86,5.47-4.7,9.47-1.85,3.99-3.63,7.97-5.35,11.92-2.06,4.64-4.12,9.45-6.18,14.43l-9.92,23.32c-.6,1.8-1.25,3.48-1.93,5.02-.6,1.29-1.22,2.58-1.87,3.86s-1.18,2.19-1.61,2.71c-.95,1.11-1.74,1.63-2.38,1.55-.64-.09-1.31-.77-2-2.06-.34-.69-1.12-2.34-2.32-4.96-1.2-2.62-2.49-5.43-3.86-8.44-1.55-3.43-3.31-7.26-5.28-11.46l-9.4-24.22c-1.63-3.69-3.18-7.17-4.64-10.43-1.2-2.75-2.41-5.43-3.61-8.05-1.2-2.62-2.06-4.49-2.58-5.6-1.03-2.15-2.21-3.91-3.54-5.28-1.33-1.37-3.07-2.45-5.22-3.22-2.15-.77-3.3-1.52-3.48-2.25-.17-.73.86-1.09,3.09-1.09,1.12,0,2.66.02,4.64.06,1.97.04,3.95.07,5.93.07,2.23.09,4.64.13,7.21.13,2.23-.17,4.42-.34,6.57-.52,1.8-.17,3.67-.26,5.6-.26s3.5.09,4.7.26c2.49.43,3.93.99,4.32,1.68.39.69-.75,1.12-3.41,1.29-2.66.17-5.05.84-7.15,2-2.11,1.16-3.16,3.2-3.16,6.12,0,1.03.49,3.16,1.48,6.38.99,3.22,2.23,6.98,3.74,11.27,1.5,4.3,3.16,8.82,4.96,13.59,1.8,4.77,3.52,9.15,5.15,13.14,1.63,3.99,3.03,7.28,4.19,9.85,1.16,2.58,1.91,3.87,2.25,3.87.26,0,1.01-1.31,2.25-3.93,1.24-2.62,2.71-5.9,4.38-9.85,1.67-3.95,3.43-8.31,5.28-13.07,1.85-4.77,3.56-9.25,5.15-13.46,1.59-4.21,2.9-7.88,3.93-11.01,1.03-3.13,1.55-5.09,1.55-5.86,0-1.12-.26-2.15-.77-3.09-.52-.94-1.16-1.76-1.93-2.45-.77-.69-1.61-1.24-2.51-1.67-.9-.43-1.78-.73-2.64-.9-.86-.17-1.48-.49-1.87-.97-.39-.47-.54-.94-.45-1.42.08-.47.43-.86,1.03-1.16.6-.3,1.42-.32,2.45-.06s2.77.41,5.22.45c2.45.04,5.02.04,7.73,0,2.71-.04,5.24-.13,7.6-.26,2.36-.13,3.97-.28,4.83-.45,1.72-.26,2.58.11,2.58,1.09s-.73,1.78-2.19,2.38c-.69.26-1.46.58-2.32.97-.86.39-1.78.99-2.77,1.8-.99.82-2.04,1.91-3.16,3.28-1.12,1.37-2.32,3.22-3.61,5.54ZM500.05,560.84c-.4,3.71-1.64,7.45-3.73,11.24-2.09,3.79-5.27,7.13-9.54,10.03-2.89,1.88-5.94,3.22-9.17,4.03-3.23.81-6.39,1.21-9.47,1.21s-6.56-.49-10.14-1.47-6.41-2.7-8.5-5.17c-1.99-2.21-2.98-5.11-2.98-8.69,0-1.96.62-3.83,1.86-5.62,1.24-1.79,2.71-3.28,4.4-4.47,1.59-1.11,3.3-1.79,5.15-2.04,1.84-.26,3.53-.21,5.07.13,1.54.34,2.81.98,3.8,1.92.99.94,1.49,2.09,1.49,3.45s-.5,2.77-1.49,4.22c-1,1.45-2.34,2.17-4.03,2.17-.89,0-1.59-.11-2.09-.32-.5-.21-.97-.45-1.42-.7s-.89-.47-1.34-.64c-.45-.17-1.02-.21-1.72-.13-1.1.17-1.86.7-2.31,1.6-.45.89-.67,1.85-.67,2.87,0,1.28.35,2.45,1.04,3.51.69,1.07,1.64,2,2.83,2.81,1.19.81,2.56,1.45,4.1,1.92,1.54.47,3.11.75,4.7.83,3.28.17,6.49-.43,9.62-1.79,3.13-1.36,5.64-3.41,7.53-6.13,1.09-1.79,1.86-3.96,2.31-6.52.45-2.55.62-5.13.52-7.73-.1-2.6-.45-5-1.04-7.22-.6-2.21-1.39-3.83-2.39-4.85-2.29-2.3-4.75-3.79-7.38-4.47-2.64-.68-4.55-.89-5.74-.64-.6.17-1.52.43-2.76.77-1.24.34-2.31.89-3.21,1.66-.89.68-1.57,1.24-2.01,1.66-.45.43-.92.64-1.42.64-.99,0-1.69-.28-2.09-.83-.4-.55-.35-1.47.15-2.75l10.74-10.99c2.19-2.64,4.18-5.07,5.97-7.28,1.49-1.87,2.91-3.64,4.25-5.3,1.34-1.66,2.11-2.66,2.31-3,.5-.68.67-1.32.52-1.92-.15-.59-.72-1.06-1.72-1.41-.5-.17-1.84-.26-4.03-.26s-4.55.04-7.08.13c-2.54.09-4.95.21-7.23.38-2.29.17-3.78.38-4.47.64-.7.25-1.37.53-2.01.83-.65.3-1.27.7-1.86,1.21-.6.51-1.22,1.21-1.86,2.11-.65.89-1.27,2.07-1.86,3.51-.3.68-.92.96-1.86.83-.95-.13-1.42-.96-1.42-2.49,0-.77.17-1.96.52-3.58.35-1.62.72-3.28,1.12-4.98.4-1.7.75-3.32,1.04-4.85.3-1.53.4-2.55.3-3.07-.2-1.11-.03-1.89.52-2.36.55-.47,1.22-.7,2.01-.7.6,0,1.02.13,1.27.38.25.26.47.53.67.83.2.3.42.64.67,1.02.25.38.67.7,1.27.96.6.25,1.74.43,3.43.51,1.69.09,3.48.13,5.37.13,2.19,0,4.57-.04,7.16-.13h18.05c2.48,0,4.18-.04,5.07-.13,1.69-.08,2.36.38,2.01,1.41-.35,1.02-1.22,2.13-2.61,3.32-.7.6-1.96,1.96-3.8,4.09-1.84,2.13-3.8,4.43-5.89,6.9-2.09,2.47-4.05,4.81-5.89,7.03-1.84,2.22-3.06,3.71-3.65,4.47-.89,1.19-1.24,2.04-1.04,2.55.2.51,1.14.81,2.83.89,3.08.17,6.19.85,9.32,2.04,3.13,1.19,5.89,2.73,8.28,4.6,2.09,1.53,3.65,3.86,4.7,6.96,1.04,3.11,1.37,6.52.97,10.22Z"/><path class="cls-11" d="M8.91,237.44v.02s0,.01,0,.02c0-.01,0-.03,0-.04Z"/><path class="cls-11" d="M42.12,264.05c.38.06.77.13,1.15.18,0,0,0,0,0,0-.38-.06-.76-.12-1.15-.18Z"/><path class="cls-11" d="M58.4,265.67c1.29.06,2.53.1,3.69.13,5.91.15,11.83.21,17.76.2-5.93.01-11.86-.05-17.77-.21-1.16-.03-2.4-.07-3.69-.12Z"/><path class="cls-11" d="M43.27,264.24s0,0,0,0c.44.07.88.13,1.32.19-.44-.06-.88-.12-1.32-.19,0,0,0,0,0,0Z"/><path class="cls-11" d="M501.83,264.24c.33-.05.65-.1.98-.16-.33.05-.65.11-.98.16h0Z"/><polygon class="cls-11" points="536.19 237.45 536.19 237.44 536.19 237.44 536.19 237.45"/><path class="cls-11" d="M486.67,265.67c-1.27.05-2.5.09-3.64.12-5.9.15-11.82.22-17.75.21,5.92.01,11.84-.05,17.74-.2,1.15-.03,2.37-.07,3.65-.13Z"/><path class="cls-11" d="M501.83,264.24c-.28.04-.56.08-.85.12.28-.04.56-.08.85-.12h0s0,0,0,0Z"/><path class="cls-7" d="M481.41,62.23c.77-3.15,1.42-6.34,1.98-9.54,1.21-7,1.91-14.11,2.11-21.25-10.75,32.43-26.16,45.97-37.97,52.33-7.84,4.22-17.82,8.54-37.61,13.59-12.96,3.31-26.12,6.66-37.7,13.36-11.58,6.7-21.57,17.33-24.35,30.42-6.32-24.44,6.01-52.43,28.32-64.25-14.77,5.9-29.68,11.86-42.83,20.81s-24.6,21.24-29.62,36.33c-1.13,3.38-1.72,6.01-2.07,8.23-.82,5.26-1.04,9.14-1.11,10.75-.04.95-.66,13.79-5.19,21.91-5.1,9.15-18.02,17.42-28.73,15.07-12.63-2.76-13.09-18.04-28.3-23.66-8.2-3.03-16.28-1.61-21.59-.07,4.83,2.94,11.96,8.24,17.25,17.06,14.02,23.38,2.32,50.12-1.37,57.48-3.61,7.22-12.92,25.79-30.86,28.65-6.99,1.11-19.12.45-24.23-7.55-5.49-8.61-1.74-23.99,11.91-34.39-12.48,5.15-23.39,14.28-30.05,26.03-6.65,11.74-8.86,26.08-5.35,39.11,1.94,7.23,5.52,13.9,8.9,20.59,3.38,6.68,6.63,13.57,7.81,20.97,1.19,7.4.08,15.46-4.54,21.36-4.62,5.9-13.21,8.92-20.01,5.78-6.8-3.14-8.44-10.33-4.94-18.75-13.6,12.4-18.78,30.23-18.56,47.72.15,11.68,3.45,23.27,9.27,33.39,4.3-6.24,8.66-12.42,13.07-18.55,11.8-16.38,23.91-32.47,36.42-48.29,3.11-3.93,6.24-7.85,9.4-11.75,7.95-9.78,16-19.47,24.49-28.98,2.09-2.39,4.32-4.74,6.47-7.1,2.18-2.36,4.52-4.71,6.77-7.04l6.8-6.64c2.27-2.2,4.59-4.36,6.89-6.53,9.86-9.22,19.96-18.15,30.24-26.82,8.98-7.57,18.1-14.96,27.37-22.16,4.97-3.86,9.99-7.66,15.07-11.4,2.54-1.87,5.12-3.74,7.69-5.54,2.57-1.81,5.13-3.65,7.72-5.42,10.32-7.16,20.76-14.05,31.09-20.95,2.29-1.53,4.56-3.06,6.83-4.59,7.99-5.4,15.89-10.87,23.59-16.59,9.89-7.33,19.44-15.06,28.59-23.28l3.43-3.09c1.14-1.04,2.24-2.11,3.36-3.17,2.22-2.13,4.5-4.21,6.64-6.42,2.17-2.19,4.37-4.35,6.51-6.57,2.15-2.21,4.23-4.46,6.29-6.74,8.2-9.1,15.53-18.93,21.41-29.66,5.89-10.71,10.37-22.26,13.28-34.23Z"/><path class="cls-14" d="M485.37,177.57c-6.61-.95-15.02.25-19.02,3.83-1.6,1.18-2.95,2.89-4.64,5.08-2.35,3.05-2.9,4.73-5.6,6.8-1.12.86-2.15,1.44-2.87,1.8,1.01.36,2.45.84,4.18,1.26,2.66.65,7.47,1.84,11.85,1.05,5.64-1.01,10.4-5.23,12.65-9.53.9-1.72,2-4.55,4.98-7.32,1.04-.96,2.01-1.63,2.68-2.05-.98-.29-2.45-.68-4.22-.93Z"/><path class="cls-5" d="M486.81,30.15c.38,10.92-.4,21.91-2.41,32.72-2.3,12.37-6.23,24.49-11.72,35.93-5.47,11.44-12.56,22.12-20.5,31.96-1.99,2.45-4.01,4.89-6.07,7.26-2.06,2.38-4.18,4.7-6.26,7.05-2.07,2.37-4.27,4.62-6.42,6.92-1.09,1.14-2.15,2.3-3.25,3.43l-3.34,3.35c-8.9,8.93-18.27,17.41-27.97,25.46-9.69,8.06-19.69,15.69-29.67,23.18-9.99,7.5-19.95,14.89-29.69,22.47-2.45,1.88-4.85,3.81-7.27,5.72-2.43,1.91-4.79,3.83-7.16,5.79-4.74,3.91-9.44,7.9-14.09,11.94-18.6,16.17-36.56,33.1-53.52,50.81-2.1,2.23-4.23,4.43-6.31,6.68l-6.2,6.76c-1.95,2.26-3.89,4.43-5.82,6.76-1.91,2.35-3.85,4.63-5.73,7.04-7.6,9.5-14.94,19.4-22.16,29.36-14.44,19.94-28.29,40.4-41.55,61.13-1.14,1.78-2.26,3.56-3.39,5.34,15.73-3.93,27.31-2.51,35.71.3,9.29,3.1,22.33,10.43,32.25,4.63,4.6-2.69,3.45-5.24,8.56-9.18,11.56-8.92,23.5-.59,32.3-7.93,6.2-5.16,2.81-10.17,7.91-22.76,4.8-11.85,15.59-21.09,28.04-24.01,12.45-2.91,26.22.58,35.78,9.07-.69-3.18-2.97-11.55-10.58-17.74-8.16-6.63-17.65-6.87-20.66-6.9-12.44-.13-16.48,6.35-23.02,3.3-5.65-2.63-8.73-10.31-8.12-16.51.94-9.62,10.72-15.25,17.23-18.89,15.43-8.6,27.3-7.82,44.08-10.15,19.47-2.71,42.04-6.55,56.26-18.97,17.12-14.94,22.8-41.53,13.28-62.16,3.17,12.88-1.24,25.47-10.5,31.23-6.5,4.04-17.48,6.02-24.43,0-7.81-6.77-5.27-19.09-4.81-21.29,3.49-16.88,21.78-23.79,23.62-24.46,15.3-6.19,39.32-18.61,59.36-43.06,45.86-55.93,31.7-127.01,28.25-141.6Z"/><path class="cls-12" d="M270.17,173.83c-.12,2.1-.45,3.82-.71,4.98,1.22-.77,2.9-1.91,4.8-3.43,2.91-2.33,8.17-6.54,11.16-12.21,3.85-7.3,3.82-16.79,1.59-23.56-.9-2.71-2.7-6.73-2.83-12.79-.04-2.11.14-3.85.31-5.03-1.12.81-2.75,2.07-4.51,3.8-6.57,6.45-12.6,17.05-12.56,25.05-.23,2.96.28,6.16.95,10.2.94,5.65,2.1,7.91,1.8,12.98Z"/><path class="cls-13" d="M210.98,244.29c.92,1.41,1.79,2.55,2.43,3.33.1-.75.29-1.85.71-3.11,1.01-3.05,2.33-4.06,4.32-7.1,1.42-2.18,2.53-3.91,3.08-5.71,1.94-4.67.4-12.54-2.5-18.13-.78-1.5-1.58-2.69-2.14-3.47-.17.74-.46,1.81-.99,3.03-1.54,3.51-3.72,5.37-4.97,6.71-3.13,3.34-5.41,8.89-4.56,14.23.67,4.14,3.21,8.06,4.62,10.23Z"/><path class="cls-2" d="M449.9,304.05c-7.34,0-14.67-.07-21.96-.2-2.21-.04-3.97-1.86-3.93-4.07.04-2.21,1.88-3.97,4.07-3.93,14.49.26,29.17.26,43.66,0,14.49-.26,29.18-.8,43.66-1.59,2.2-.12,4.09,1.57,4.21,3.78.12,2.21-1.57,4.09-3.78,4.21-14.57.8-29.36,1.33-43.95,1.6-7.29.13-14.64.2-21.98.2Z"/><path class="cls-2" d="M79.4,303.87c-1.66,0-3.31,0-4.97-.02-14.62-.1-29.44-.64-44.04-1.6-2.2-.15-3.87-2.05-3.73-4.25.15-2.2,2.04-3.87,4.25-3.73,14.44.95,29.1,1.49,43.56,1.58,17.78.12,35.78-.41,53.52-1.58,2.22-.14,4.11,1.52,4.25,3.73s-1.52,4.11-3.73,4.25c-16.28,1.07-32.78,1.62-49.13,1.62Z"/><path class="cls-2" d="M391.04,340.56c-11.34,0-22.67-.05-33.93-.16-2.21-.02-3.98-1.83-3.96-4.04.02-2.2,1.81-3.96,4-3.96h.04c24.32.24,48.98.22,73.31-.06,2.53-.03,5.06-.06,7.59-.09,2.23-.07,4.02,1.74,4.05,3.95.03,2.21-1.74,4.02-3.95,4.05-2.53.03-5.06.07-7.6.09-13.12.15-26.34.22-39.55.22Z"/><path class="cls-2" d="M465.27,340.56c-2.19,0-3.98-1.77-4-3.96-.02-2.21,1.75-4.02,3.96-4.04,13.58-.13,27.35-.35,40.94-.64,2.24-.03,4.04,1.7,4.08,3.91.05,2.21-1.7,4.04-3.91,4.08-13.62.29-27.43.51-41.04.64h-.04Z"/><path class="cls-2" d="M74.15,340.39c-5.63,0-11.25-.03-16.85-.1-6.81-.08-13.69-.21-20.44-.38-2.21-.06-3.95-1.89-3.9-4.1.06-2.21,1.91-3.96,4.1-3.9,6.72.17,13.56.3,20.33.38,17.93.21,36.1.08,54.02-.38,2.2-.07,4.04,1.69,4.1,3.9.06,2.21-1.69,4.04-3.9,4.1-12.42.32-24.97.48-37.47.48Z"/><path class="cls-2" d="M135.98,560.55c-2.09,0-3.85-1.63-3.99-3.75-.14-2.2,1.53-4.11,3.74-4.25,51.19-3.26,103.39-3.29,153.88-3.33h1.74s0,0,0,0c2.21,0,4,1.79,4,4,0,2.21-1.79,4-4,4h-1.74c-50.36.04-102.44.07-153.37,3.31-.09,0-.17,0-.26,0Z"/><path class="cls-2" d="M357.15,558.8c-.06,0-.11,0-.17,0-12.67-.52-25.53-.93-38.22-1.23-2.21-.05-3.96-1.89-3.9-4.09.05-2.18,1.83-3.9,4-3.9.03,0,.06,0,.1,0,12.74.3,25.64.72,38.36,1.24,2.21.09,3.92,1.95,3.83,4.16-.09,2.15-1.86,3.84-3.99,3.84Z"/><path class="cls-2" d="M142.5,513.2c-2.15,0-3.93-1.71-4-3.87-.07-2.21,1.66-4.05,3.87-4.12,16.63-.52,33.48-.96,50.09-1.31,2.23-.04,4.04,1.71,4.08,3.92.05,2.21-1.71,4.04-3.92,4.08-16.58.35-33.4.79-50.01,1.31-.04,0-.09,0-.13,0Z"/><path class="cls-2" d="M214.28,511.48c-2.18,0-3.96-1.75-4-3.93-.04-2.21,1.73-4.03,3.93-4.06,10.09-.17,20.33-.3,30.43-.4,31.34-.31,63.15-.31,94.52,0,2.21.02,3.98,1.83,3.96,4.04-.02,2.21-1.8,3.97-4.04,3.96-31.33-.31-63.08-.31-94.37,0-10.08.1-20.3.23-30.38.4-.02,0-.04,0-.07,0Z"/><path class="cls-2" d="M486.67,419.11h-176.34c-2.21,0-4-1.79-4-4s1.79-4,4-4h176.34c2.21,0,4,1.79,4,4s-1.79,4-4,4Z"/><path class="cls-2" d="M97.41,419.11h-36.51c-2.21,0-4-1.79-4-4s1.79-4,4-4h36.51c2.21,0,4,1.79,4,4s-1.79,4-4,4Z"/><path class="cls-2" d="M486.67,378.04h-108.46c-2.21,0-4-1.79-4-4s1.79-4,4-4h108.46c2.21,0,4,1.79,4,4s-1.79,4-4,4Z"/><path class="cls-2" d="M93.81,378.04h-41c-2.21,0-4-1.79-4-4s1.79-4,4-4h41c2.21,0,4,1.79,4,4s-1.79,4-4,4Z"/><path class="cls-2" d="M486.67,462.8h-63.71c-2.21,0-4-1.79-4-4s1.79-4,4-4h63.71c2.21,0,4,1.79,4,4s-1.79,4-4,4Z"/><path class="cls-2" d="M389.52,462.8h-214.97c-2.21,0-4-1.79-4-4s1.79-4,4-4h214.97c2.21,0,4,1.79,4,4s-1.79,4-4,4Z"/><path class="cls-2" d="M86.1,462.8h-28.12c-2.21,0-4-1.79-4-4s1.79-4,4-4h28.12c2.21,0,4,1.79,4,4s-1.79,4-4,4Z"/><path class="cls-6" d="M439.87,240.81c.05.23.08.45.11.68,1.36,7.25,3.17,15.8,5.04,24.16,6.75.22,13.51.33,20.26.35,5.92.01,11.84-.05,17.75-.21,1.15-.03,2.37-.07,3.64-.12,4.3-.19,9.24-.56,14.32-1.31.28-.04.56-.08.85-.12,0,0,0,0,0,0-2.07-17.75,1.33-33.79,1.33-33.79-1,1.49-2.77,3.89-5.46,6.31-15.07,13.62-44.06,14.38-55.47.68-1.96-2.35-3.25-4.95-4.1-7.55.34,2.19.84,5.46,1.49,9.44.08.52.16,1,.24,1.47Z"/><path class="cls-4" d="M62.08,265.79c5.91.15,11.84.22,17.77.21,6.74-.01,13.49-.12,20.24-.35,1.86-8.36,3.68-16.9,5.04-24.16.03-.23.06-.45.11-.68.08-.47.16-.96.24-1.47.65-3.98,1.15-7.25,1.49-9.44-.84,2.59-2.14,5.2-4.1,7.55-11.42,13.7-40.4,12.94-55.47-.68-2.69-2.43-4.45-4.83-5.46-6.31,0,0,3.4,16.05,1.33,33.79,0,0,0,0,0,0,.44.07.88.13,1.32.19,4.9.7,9.65,1.06,13.81,1.24,1.29.06,2.53.1,3.69.12Z"/></g></svg>